<svg width="250" height="250" viewBox="0 0 250 250" fill="none" xmlns="http://www.w3.org/2000/svg">
<path d="M104.167 203.125C104.167 211.76 97.1667 218.75 88.5417 218.75C79.9167 218.75 72.9167 211.76 72.9167 203.125C72.9167 194.5 79.9167 187.5 88.5417 187.5C97.1667 187.5 104.167 194.5 104.167 203.125ZM140.625 187.5C132 187.5 125 194.49 125 203.125C125 211.76 132 218.75 140.625 218.75C149.25 218.75 156.25 211.76 156.25 203.125C156.25 194.5 149.25 187.5 140.625 187.5ZM154.542 135.417L175.135 62.5H0L30.6042 135.417H154.542ZM206.302 31.25L170.552 156.25H39.3333L48.0729 177.083H185.979L222.167 52.0833H242.26L250 31.25H206.302Z" fill="#686868"/>
</svg>
