<svg width="156" height="34" fill="none" xmlns="http://www.w3.org/2000/svg"><g clip-path="url(#clip0_73_415)"><path d="M121.508 17.536v-4.228h-8.54v4.228h1.288l-1.932 4.34-1.932-4.34h1.288v-4.228h-8.54v4.228h2.156L109.944 27h4.76l4.648-9.464h2.156zm14.874 2.324c0-4.172-3.052-6.888-7.168-6.888-4.312 0-7.252 2.968-7.252 7.168s3.024 7.224 7.588 7.224c3.472 0 6.132-1.932 6.748-4.844h-4.788c-.364.588-1.064.952-1.96.952-1.54 0-2.268-.812-2.548-1.932h9.324c.056-.504.056-1.176.056-1.68zm-6.972-3.304c1.26 0 2.016.84 2.212 2.016h-4.592c.336-1.232 1.12-2.016 2.38-2.016zm25.985 6.216h-1.736v-3.78c0-3.836-2.352-6.104-5.74-6.104-1.4 0-2.548.448-3.64 1.344v-.924h-6.748v4.228h1.764v5.236h-1.764V27h8.484v-4.228h-1.736v-4.368c.7-.728 1.428-1.092 2.184-1.092 1.26 0 2.212.756 2.212 2.576V27h6.72v-4.228zM16.128 17.256c1.652-.616 2.604-2.492 2.604-4.256 0-3.024-2.436-5.04-6.608-5.04H1.064v4.228h1.96v10.584h-1.96V27H12.74c4.34 0 6.832-2.128 6.832-5.376 0-1.96-1.204-3.864-3.444-4.368zm-7.924-5.18H11.2c1.652 0 2.408.56 2.408 1.708 0 1.092-.784 1.848-2.38 1.848H8.204v-3.556zm0 10.724v-3.444h3.752c1.68 0 2.408.532 2.408 1.596 0 1.12-.756 1.848-2.576 1.848H8.204zm26.545-2.94c0-4.172-3.052-6.888-7.168-6.888-4.311 0-7.252 2.968-7.252 7.168s3.024 7.224 7.588 7.224c3.473 0 6.133-1.932 6.748-4.844h-4.787c-.364.588-1.064.952-1.96.952-1.54 0-2.268-.812-2.549-1.932h9.325c.055-.504.055-1.176.055-1.68zm-6.972-3.304c1.26 0 2.017.84 2.212 2.016h-4.591c.335-1.232 1.12-2.016 2.38-2.016zm19.711 5.964c-1.176.196-1.904.308-2.492.308-1.288 0-1.96-.644-1.96-1.904v-3.388h4.34v-4.228h-4.34V9.22h-4.984v4.088h-2.688v4.228h2.688v3.584c0 3.78 2.212 6.3 5.516 6.3 1.4 0 2.576-.112 4.452-.728l-.532-4.172zm19.398.252h-1.764v-3.78c0-3.836-2.352-6.104-5.712-6.104-1.428 0-2.576.448-3.668 1.372V7.12h-6.72v4.228h1.736v11.424h-1.736V27h8.484v-4.228h-1.764v-4.256c.7-.784 1.428-1.148 2.184-1.148 1.288 0 2.212.784 2.212 2.576V27h6.748v-4.228z" fill="#FF860F"/><g clip-path="url(#clip1_73_415)"><path fill-rule="evenodd" clip-rule="evenodd" d="M80.036 4.22c-.534.265-1.16.962-1.483 1.651-.914 1.953-.487 4.774.954 6.297.654.692 1.28 1 2.037 1.003 1.348.005 2.463-1.115 2.883-2.897.543-2.3-.507-5.16-2.203-6.005-.682-.34-1.559-.36-2.188-.048zm9.062-.089c-1.9.677-3.108 3.57-2.546 6.096.408 1.835 1.482 2.944 2.855 2.948.797.002 1.387-.281 2.055-.987 1.794-1.897 1.941-5.464.301-7.331-.63-.718-1.796-1.035-2.665-.726zM73.92 11.415c-2.329 1.086-2.597 5.263-.493 7.653 1.286 1.46 2.932 1.628 4.109.42.714-.733.965-1.416 1.029-2.799.08-1.748-.462-3.295-1.536-4.386-.97-.987-2.165-1.327-3.109-.888zm21.45-.063c-.937.306-1.88 1.248-2.412 2.41-.446.974-.588 1.743-.539 2.921.053 1.285.292 1.992.906 2.69.568.645 1.1.903 1.867.905 2.727.008 4.772-4.51 3.333-7.364-.68-1.349-1.923-1.964-3.155-1.562zm-10.638 2.762c-1.107.285-2.017.792-2.65 1.475-.382.413-.865 1.22-1.546 2.583-.64 1.28-1.4 2.243-2.793 3.533-1.615 1.497-1.874 1.976-2.102 3.885-.093.782-.084 1.038.05 1.573.256 1.016.698 1.81 1.354 2.436.844.804 1.683 1.203 2.672 1.271 1.087.075 1.553-.068 3.086-.94 1.706-.973 2.055-1.096 2.887-1.023.734.064 1.552.416 2.945 1.267 1.456.889 2.423 1.037 3.642.557 2.733-1.075 3.901-4.208 2.61-7-.316-.684-.503-.911-1.74-2.103-1.58-1.523-1.994-2.066-2.883-3.77-1.121-2.152-1.9-3.017-3.147-3.497-.548-.21-1.958-.357-2.385-.247z" fill="#595959"/></g></g><defs><clipPath id="clip0_73_415"><path fill="#fff" d="M0 0h156v34H0z"/></clipPath><clipPath id="clip1_73_415"><path fill="#fff" transform="translate(72 4)" d="M0 0h27v27H0z"/></clipPath></defs></svg>