<svg width="250" height="250" viewBox="0 0 250 250" fill="none" xmlns="http://www.w3.org/2000/svg">
<g clip-path="url(#clip0_165_35)">
<path d="M165.733 6.26775C148.685 7.96681 132.699 19.577 125.555 35.4349C122.513 42.2311 121.311 48.2486 121.311 56.5315C121.311 70.5487 125.767 81.6634 135.458 91.6454C140.834 97.0965 148.261 101.84 155.335 104.247C163.681 107.008 175.14 107.503 183.416 105.45C206.618 99.5743 221.755 80.0351 221.755 56.1775C221.755 47.3283 220.411 41.5232 216.804 34.1606C207.254 14.763 187.661 4.14394 165.733 6.26775ZM183.416 12.2852C205.062 17.9488 219.987 40.3197 216.804 62.2658C214.611 77.4158 205.91 89.8755 192.754 96.7425C185.539 100.495 179.738 101.91 171.533 101.91C159.013 101.91 148.19 97.4505 139.348 88.672C123.787 73.0973 121.523 49.3105 133.76 30.9041C138.075 24.391 143.734 19.5062 151.373 15.6834C161.63 10.5862 172.382 9.45348 183.416 12.2852Z" fill="#686868"/>
<path d="M161.701 18.6567C144.866 23.1875 132.628 38.9746 132.628 56.1068C132.699 77.8405 150.029 95.3975 171.533 95.3975C189.075 95.3975 204.92 83.0085 209.306 65.9471C214.611 45.4877 201.737 23.9663 181.011 18.5859C175.918 17.2409 166.794 17.3116 161.701 18.6567ZM163.752 25.3114C165.45 27.0104 165.52 27.5768 163.893 29.559C163.186 30.4793 161.559 31.1873 159.72 31.4705C157.244 31.8244 156.678 31.612 155.971 30.3377C154.769 28.0723 155.688 26.3025 158.659 25.0282C162.054 23.6123 162.125 23.6831 163.752 25.3114ZM152.293 31.8244C153.708 33.2403 153.212 35.2225 150.666 38.2667C149.251 39.8949 147.271 42.9391 146.21 45.1337C144.512 48.6026 144.3 49.8061 144.3 56.4607C144.3 63.257 144.512 64.2481 146.351 68.1418C150.242 76.0707 157.032 81.1679 165.591 82.7253C172.594 83.9996 173.301 84.2828 173.513 86.1942C173.796 89.3092 172.735 90.0879 168.138 89.8755C149.181 89.0968 134.255 70.3364 137.438 51.2928C139.419 39.6826 148.402 27.9307 152.293 31.8244Z" fill="#686868"/>
<path d="M202.656 104.388C201.312 105.379 200.251 106.371 200.322 106.725C200.605 107.716 206.335 116.636 206.688 116.636C207.679 116.636 211.852 113.592 211.852 112.884C211.852 112.105 205.698 102.406 205.274 102.548C205.203 102.548 204 103.397 202.656 104.388Z" fill="#686868"/>
<path d="M65.0054 121.804L46.5435 134.688L98.8169 134.901L151.09 135.042L163.115 124.636L175.14 114.158L168.491 113.662C164.53 113.308 159.437 112.317 155.9 111.185L149.959 109.273L116.713 109.061L83.4673 108.919L65.0054 121.804Z" fill="#686868"/>
<path d="M190.278 110.547C188.722 111.255 168.208 128.6 157.527 138.228C157.386 138.369 163.398 143.537 170.826 149.838C184.265 161.165 184.407 161.236 185.963 160.032C186.812 159.324 191.693 155.148 196.785 150.688L206.052 142.617L203.293 138.369C200.817 134.547 199.12 130.44 199.12 128.175C199.12 127.68 199.615 125.91 200.181 124.14L201.242 120.954L197.634 115.291C195.654 112.105 193.673 109.556 193.178 109.556C192.754 109.627 191.48 110.052 190.278 110.547Z" fill="#686868"/>
<path d="M218.218 117.556C215.035 119.255 210.154 122.511 208.174 124.352C204.566 127.538 205.061 128.741 218.289 149.201C224.938 159.537 230.809 168.386 231.304 168.952C232.153 169.802 233.568 169.094 240.924 164.351C245.664 161.307 249.837 158.546 250.191 158.333C250.969 157.838 227.343 121.237 224.514 118.547C222.179 116.423 220.835 116.211 218.218 117.556Z" fill="#686868"/>
<path d="M14.1467 153.519C6.36579 159.749 0.0703404 165.059 0.211811 165.342C0.353282 165.767 108.72 178.793 112.964 178.934C113.601 178.934 119.189 172.775 126.333 164.209C133.053 156.139 139.985 147.856 141.683 145.803L144.795 142.121L86.5797 142.192H28.2938L14.1467 153.519Z" fill="#686868"/>
<path d="M155.264 192.81V240.171L158.022 237.34C160.71 234.508 188.509 204.704 196.715 195.784C203.081 188.917 203.435 187.501 203.222 169.165L203.01 154.157L194.38 161.59C189.712 165.696 185.256 169.023 184.619 169.023C183.558 169.023 175.636 162.723 159.013 148.635L155.264 145.52V192.81Z" fill="#686868"/>
<path d="M132.77 167.041C124.069 177.519 116.572 186.014 116.147 186.014C115.652 186.014 98.1096 184.102 77.1719 181.766C56.1635 179.43 38.6918 177.519 38.4089 177.519C38.126 177.519 37.843 186.155 37.843 196.704C37.843 217.446 38.0552 218.933 41.8042 220.632C44.0677 221.623 148.049 244.419 148.544 243.994C148.756 243.782 148.827 222.119 148.756 195.854L148.544 148.139L132.77 167.041Z" fill="#686868"/>
</g>
<defs>
<clipPath id="clip0_165_35">
<rect width="250" height="250" fill="white"/>
</clipPath>
</defs>
</svg>
