<svg xmlns="http://www.w3.org/2000/svg" viewBox="0 0 8 8" id="cancel">
    <path fill-rule="evenodd" clip-rule="evenodd"
          d="M4 3.465L6.8595 0.604999C6.9325 0.531999 7.029 0.495499 7.125 0.495499C7.327 0.495499 7.5 0.657498 7.5 0.869998C7.5 0.966498 7.4635 1.0625 7.3905 1.136L4.5305 3.9955L7.39 6.855C7.4635 6.9285 7.5 7.0245 7.5 7.1205C7.5 7.334 7.3255 7.4955 7.125 7.4955C7.029 7.4955 6.9325 7.459 6.8595 7.386L4 4.5265L1.1405 7.386C1.0675 7.459 0.971 7.4955 0.875 7.4955C0.6745 7.4955 0.5 7.334 0.5 7.1205C0.5 7.0245 0.5365 6.9285 0.61 6.855L3.4695 3.9955L0.6095 1.136C0.5365 1.0625 0.5 0.966498 0.5 0.869998C0.5 0.657498 0.673 0.495499 0.875 0.495499C0.971 0.495499 1.0675 0.531999 1.1405 0.604999L4 3.465Z"></path>
</svg>
