<svg xmlns="http://www.w3.org/2000/svg" viewBox="0 0 29 23" id="cart">
    <path d="M12.0833 20.5625C12.0833 21.5642 11.2713 22.375 10.2708 22.375C9.27033 22.375 8.45833 21.5642 8.45833 20.5625C8.45833 19.562 9.27033 18.75 10.2708 18.75C11.2713 18.75 12.0833 19.562 12.0833 20.5625ZM16.3125 18.75C15.312 18.75 14.5 19.5608 14.5 20.5625C14.5 21.5642 15.312 22.375 16.3125 22.375C17.313 22.375 18.125 21.5642 18.125 20.5625C18.125 19.562 17.313 18.75 16.3125 18.75ZM17.9268 12.7083L20.3157 4.25H0L3.55008 12.7083H17.9268ZM23.931 0.625L19.784 15.125H4.56267L5.57646 17.5417H21.5736L25.7713 3.04167H28.1022L29 0.625H23.931Z"></path>
</svg>